<?xml version="1.0" encoding="utf-8"?>
<!-- Generator: Adobe Illustrator 25.1.0, SVG Export Plug-In . SVG Version: 6.00 Build 0)  -->
<svg version="1.1" id="Capa_1" xmlns="http://www.w3.org/2000/svg" xmlns:xlink="http://www.w3.org/1999/xlink" x="0px" y="0px"
	 viewBox="0 0 595.3 91.3" style="enable-background:new 0 0 595.3 91.3;" xml:space="preserve">
<style type="text/css">
	.st0{fill:#ECF0C0;}
	.st1{fill:#6B4595;}
	.st2{fill:none;stroke:#6B4595;stroke-miterlimit:10;}
</style>
<rect class="st0" width="595.3" height="91.3"/>
<circle class="st1" cx="48.6" cy="44.2" r="26.6"/>
<rect x="14.6" y="10.4" class="st2" width="561.8" height="67.6"/>
<g>
	<path d="M91.3,29.1H94v11.2h6.5v2.6h-9.3V29.1z"/>
	<path d="M102.3,38.7c0-0.8,0.2-1.6,0.6-2.3c0.4-0.7,1-1.2,1.7-1.6c0.7-0.4,1.5-0.6,2.5-0.6c0.9,0,1.8,0.2,2.4,0.6s1.2,0.9,1.6,1.6
		c0.4,0.7,0.6,1.4,0.6,2.3c0,0.8-0.2,1.6-0.6,2.3c-0.4,0.7-0.9,1.2-1.6,1.6s-1.5,0.6-2.5,0.6c-0.9,0-1.7-0.2-2.4-0.5
		c-0.7-0.4-1.3-0.9-1.7-1.5C102.5,40.4,102.3,39.6,102.3,38.7z M105,38.7c0,0.4,0.1,0.8,0.3,1.2c0.2,0.3,0.4,0.6,0.7,0.8
		c0.3,0.2,0.6,0.3,1,0.3c0.4,0,0.8-0.1,1.1-0.3c0.3-0.2,0.5-0.5,0.7-0.8c0.2-0.3,0.2-0.7,0.2-1.2c0-0.4-0.1-0.8-0.2-1.2
		c-0.2-0.3-0.4-0.6-0.7-0.8c-0.3-0.2-0.7-0.3-1.1-0.3c-0.4,0-0.7,0.1-1,0.3c-0.3,0.2-0.5,0.5-0.7,0.8C105.1,37.9,105,38.3,105,38.7z
		"/>
	<path d="M116.1,34.7l0.2,2.3l-0.1-0.3c0.2-0.5,0.6-0.9,1-1.3c0.4-0.3,0.8-0.6,1.2-0.8s0.7-0.3,0.9-0.3l-0.1,2.6
		c-0.6-0.1-1.1,0-1.6,0.3c-0.4,0.3-0.8,0.6-1,1.1c-0.2,0.5-0.4,0.9-0.4,1.4v3.2h-2.6v-8.2H116.1z"/>
	<path d="M125.1,43.2c-1,0-1.9-0.2-2.6-0.6c-0.7-0.4-1.2-0.9-1.6-1.6c-0.4-0.7-0.5-1.4-0.5-2.3c0-0.8,0.2-1.6,0.6-2.2
		c0.4-0.7,1-1.2,1.7-1.6c0.7-0.4,1.5-0.6,2.4-0.6c1.2,0,2.2,0.3,2.9,1c0.8,0.7,1.3,1.7,1.5,3l-6.4,2l-0.6-1.4l4.6-1.6l-0.5,0.2
		c-0.1-0.3-0.3-0.6-0.5-0.9c-0.3-0.2-0.6-0.4-1.2-0.4c-0.4,0-0.7,0.1-1,0.3c-0.3,0.2-0.5,0.4-0.7,0.8c-0.2,0.3-0.2,0.7-0.2,1.2
		c0,0.5,0.1,0.9,0.3,1.3c0.2,0.3,0.4,0.6,0.8,0.8c0.3,0.2,0.7,0.3,1.1,0.3c0.3,0,0.6-0.1,0.8-0.2c0.3-0.1,0.5-0.2,0.8-0.4l1.2,2
		c-0.4,0.3-0.9,0.5-1.4,0.6S125.6,43.2,125.1,43.2z"/>
	<path d="M133.9,34.7l0.2,1.5l0-0.1c0.3-0.6,0.7-1,1.2-1.3s1.1-0.5,1.8-0.5c0.5,0,0.9,0.1,1.2,0.2c0.3,0.1,0.6,0.3,0.9,0.6
		c0.2,0.2,0.4,0.6,0.5,1l-0.1,0c0.4-0.5,0.8-0.9,1.3-1.2s1-0.5,1.6-0.5c0.8,0,1.5,0.2,2,0.7c0.5,0.5,0.7,1.1,0.7,1.8v6.2h-2.6v-5.1
		c0-0.4-0.1-0.7-0.2-0.9s-0.3-0.4-0.7-0.4c-0.4,0-0.8,0.1-1.1,0.4c-0.3,0.3-0.5,0.7-0.7,1.1c-0.1,0.5-0.2,0.9-0.2,1.4v3.4h-2.6v-5.1
		c0-0.4-0.1-0.7-0.2-0.9c-0.1-0.2-0.4-0.4-0.7-0.4c-0.4,0-0.8,0.1-1,0.4c-0.3,0.3-0.5,0.7-0.6,1.1c-0.1,0.5-0.2,0.9-0.2,1.4v3.4
		h-2.6v-8.2H133.9z"/>
	<path d="M153.8,31.8c0-0.4,0.2-0.7,0.5-1c0.3-0.3,0.6-0.4,1-0.4s0.7,0.1,1,0.4c0.3,0.3,0.4,0.6,0.4,1c0,0.4-0.1,0.7-0.4,1
		c-0.3,0.2-0.6,0.4-1,0.4s-0.7-0.1-1-0.4C154,32.5,153.8,32.2,153.8,31.8z M153.9,34.7h2.6v8.2h-2.6V34.7z"/>
	<path d="M164.4,43.2c-0.5,0-1-0.1-1.4-0.3c-0.5-0.2-0.9-0.4-1.2-0.8l0.1-0.8v5.6h-2.6V34.5h2.3l0.4,1.6l-0.2-0.6
		c0.4-0.4,0.9-0.7,1.4-0.9c0.5-0.2,1.1-0.4,1.8-0.4c0.8,0,1.5,0.2,2.1,0.5s1.1,0.9,1.4,1.5s0.5,1.5,0.5,2.4c0,0.9-0.2,1.7-0.6,2.4
		s-0.9,1.1-1.6,1.5C166,43,165.3,43.2,164.4,43.2z M163.8,41.1c0.4,0,0.8-0.1,1.2-0.3c0.4-0.2,0.6-0.5,0.9-0.8
		c0.2-0.3,0.3-0.7,0.3-1.2c0-0.5-0.1-0.9-0.3-1.2c-0.2-0.3-0.5-0.6-0.8-0.8c-0.3-0.2-0.7-0.3-1.1-0.3c-0.4,0-0.7,0-0.9,0.1
		s-0.5,0.2-0.7,0.4c-0.2,0.2-0.4,0.4-0.5,0.7v2c0.1,0.3,0.2,0.5,0.4,0.7c0.2,0.2,0.4,0.4,0.7,0.5C163.2,41,163.5,41.1,163.8,41.1z"
		/>
	<path d="M173.6,43.1c-0.7,0-1.3-0.1-1.9-0.4c-0.6-0.2-1.1-0.6-1.5-1l1.1-1.5c0.4,0.4,0.8,0.6,1.1,0.8c0.3,0.2,0.7,0.2,0.9,0.2
		c0.2,0,0.4,0,0.6-0.1c0.2,0,0.3-0.1,0.4-0.2c0.1-0.1,0.2-0.2,0.2-0.4c0-0.2-0.1-0.4-0.3-0.5c-0.2-0.1-0.4-0.2-0.7-0.3
		s-0.5-0.2-0.8-0.3c-0.8-0.2-1.3-0.6-1.6-1c-0.3-0.5-0.5-1-0.5-1.5c0-0.4,0.1-0.8,0.3-1.3s0.6-0.8,1.1-1.1s1.1-0.4,1.9-0.4
		c0.7,0,1.3,0.1,1.8,0.2c0.5,0.1,0.9,0.4,1.4,0.7l-1,1.5c-0.2-0.2-0.5-0.3-0.8-0.5c-0.3-0.1-0.6-0.2-0.8-0.2c-0.2,0-0.4,0-0.6,0.1
		c-0.2,0.1-0.3,0.1-0.4,0.2s-0.1,0.2-0.1,0.3c0,0.2,0.1,0.4,0.3,0.6s0.4,0.2,0.7,0.3c0.3,0.1,0.6,0.2,0.9,0.3c0.4,0.1,0.7,0.3,1,0.5
		c0.3,0.2,0.5,0.5,0.7,0.8c0.2,0.3,0.2,0.6,0.2,1.1c0,0.5-0.1,1-0.4,1.4c-0.3,0.4-0.6,0.8-1.2,1.1C175.1,43,174.4,43.1,173.6,43.1z"
		/>
	<path d="M182,43.3c-0.7,0-1.4-0.2-1.9-0.7s-0.8-1.1-0.8-1.8v-6.2h2.6v5.2c0,0.4,0.1,0.7,0.3,0.9c0.2,0.2,0.4,0.3,0.8,0.3
		c0.4,0,0.7-0.1,1-0.4s0.5-0.6,0.7-1.1c0.2-0.5,0.2-1,0.2-1.6v-3.4h2.6v8.2h-2.4l-0.2-1.5l0,0.2c-0.2,0.3-0.4,0.6-0.7,0.9
		c-0.3,0.3-0.6,0.5-1,0.6C183,43.3,182.5,43.3,182,43.3z"/>
	<path d="M192.8,34.7l0.2,1.5l0-0.1c0.3-0.6,0.7-1,1.2-1.3s1.1-0.5,1.8-0.5c0.5,0,0.9,0.1,1.2,0.2c0.3,0.1,0.6,0.3,0.9,0.6
		c0.2,0.2,0.4,0.6,0.5,1l-0.1,0c0.4-0.5,0.8-0.9,1.3-1.2s1-0.5,1.6-0.5c0.8,0,1.5,0.2,2,0.7c0.5,0.5,0.7,1.1,0.7,1.8v6.2h-2.6v-5.1
		c0-0.4-0.1-0.7-0.2-0.9s-0.3-0.4-0.7-0.4c-0.4,0-0.8,0.1-1.1,0.4c-0.3,0.3-0.5,0.7-0.7,1.1c-0.1,0.5-0.2,0.9-0.2,1.4v3.4h-2.6v-5.1
		c0-0.4-0.1-0.7-0.2-0.9c-0.1-0.2-0.4-0.4-0.7-0.4c-0.4,0-0.8,0.1-1,0.4c-0.3,0.3-0.5,0.7-0.6,1.1c-0.1,0.5-0.2,0.9-0.2,1.4v3.4
		h-2.6v-8.2H192.8z"/>
</g>
<g>
	<path d="M92.5,52.2h0.2v7h4.1v0.2h-4.3V52.2z"/>
	<path d="M97.9,57.5c0-0.4,0.1-0.7,0.3-1c0.2-0.3,0.4-0.5,0.7-0.7c0.3-0.2,0.6-0.3,1-0.3c0.4,0,0.7,0.1,1,0.3
		c0.3,0.2,0.5,0.4,0.7,0.7c0.2,0.3,0.3,0.6,0.3,1c0,0.4-0.1,0.7-0.3,1c-0.2,0.3-0.4,0.5-0.7,0.7c-0.3,0.2-0.6,0.3-1,0.3
		c-0.4,0-0.7-0.1-1-0.3c-0.3-0.2-0.5-0.4-0.7-0.7C98,58.2,97.9,57.8,97.9,57.5z M98.1,57.5c0,0.3,0.1,0.6,0.2,0.9s0.4,0.5,0.7,0.7
		s0.6,0.2,0.9,0.2s0.6-0.1,0.9-0.2s0.5-0.4,0.7-0.7s0.2-0.6,0.2-0.9c0-0.3-0.1-0.6-0.2-0.9s-0.4-0.5-0.7-0.7s-0.6-0.2-0.9-0.2
		c-0.3,0-0.7,0.1-0.9,0.3s-0.5,0.4-0.6,0.7C98.2,56.9,98.1,57.2,98.1,57.5z"/>
	<path d="M103.6,55.5l0,1.2l0-0.1c0.1-0.2,0.2-0.5,0.4-0.6s0.4-0.3,0.6-0.4s0.5-0.1,0.7-0.1l0,0.2c-0.3,0-0.6,0.1-0.8,0.2
		c-0.3,0.1-0.5,0.3-0.6,0.5c-0.1,0.2-0.2,0.5-0.2,0.8v2.2h-0.2v-3.9H103.6z"/>
	<path d="M108.1,59.5c-0.4,0-0.7-0.1-1-0.3c-0.3-0.2-0.5-0.4-0.7-0.7c-0.2-0.3-0.3-0.6-0.3-1c0-0.4,0.1-0.7,0.3-1
		c0.2-0.3,0.4-0.5,0.7-0.7c0.3-0.2,0.6-0.3,1-0.3c0.4,0,0.8,0.1,1.1,0.4c0.3,0.2,0.5,0.6,0.7,0.9l-3.5,1.4l-0.1-0.2l3.4-1.4
		l-0.1,0.1c-0.1-0.3-0.3-0.6-0.6-0.8c-0.3-0.2-0.6-0.3-0.9-0.3c-0.3,0-0.6,0.1-0.9,0.2s-0.5,0.4-0.6,0.7s-0.2,0.6-0.2,0.9
		c0,0.3,0.1,0.6,0.2,0.9c0.1,0.3,0.4,0.5,0.6,0.7s0.6,0.3,1,0.3c0.2,0,0.5,0,0.7-0.1c0.2-0.1,0.4-0.2,0.6-0.4l0.1,0.1
		c-0.2,0.2-0.4,0.3-0.6,0.4C108.7,59.4,108.4,59.5,108.1,59.5z"/>
	<path d="M111.5,55.5l0,1.2l0-0.1c0.1-0.4,0.3-0.6,0.7-0.9c0.3-0.2,0.7-0.3,1-0.3c0.2,0,0.4,0,0.6,0.1s0.3,0.2,0.4,0.4
		c0.1,0.2,0.2,0.3,0.2,0.5l0,0.1c0.1-0.4,0.3-0.6,0.7-0.8c0.3-0.2,0.6-0.3,1-0.3c0.4,0,0.6,0.1,0.9,0.3c0.2,0.2,0.3,0.5,0.3,0.7v2.9
		H117v-2.8c0-0.2-0.1-0.4-0.3-0.6s-0.4-0.3-0.7-0.3c-0.3,0-0.5,0.1-0.8,0.2c-0.2,0.1-0.4,0.3-0.6,0.5c-0.2,0.2-0.2,0.5-0.3,0.7v2.3
		h-0.2v-2.8c0-0.2-0.1-0.4-0.3-0.6s-0.4-0.3-0.7-0.3c-0.3,0-0.6,0.1-0.8,0.2c-0.2,0.1-0.4,0.3-0.6,0.5c-0.2,0.2-0.2,0.5-0.2,0.8v2.2
		h-0.2v-3.9H111.5z"/>
	<path d="M122,54.3c0-0.1,0-0.1,0.1-0.2c0,0,0.1-0.1,0.2-0.1c0.1,0,0.1,0,0.2,0.1c0,0,0.1,0.1,0.1,0.2c0,0.1,0,0.1-0.1,0.2
		c0,0-0.1,0.1-0.2,0.1c-0.1,0-0.1,0-0.2-0.1C122.1,54.4,122,54.4,122,54.3z M122.2,55.5h0.2v3.9h-0.2V55.5z"/>
	<path d="M126.3,59.5c-0.4,0-0.8-0.1-1.1-0.3c-0.3-0.2-0.6-0.5-0.7-0.9l0-0.2v3.3h-0.2v-5.7h0.2l0,1.4l0-0.3
		c0.1-0.4,0.4-0.7,0.7-0.9c0.3-0.2,0.7-0.3,1.1-0.3c0.4,0,0.7,0.1,1,0.3c0.3,0.2,0.5,0.4,0.7,0.7c0.2,0.3,0.3,0.6,0.3,1
		s-0.1,0.7-0.3,1c-0.2,0.3-0.4,0.5-0.7,0.7C127,59.4,126.7,59.5,126.3,59.5z M126.3,59.3c0.3,0,0.6-0.1,0.9-0.2
		c0.3-0.2,0.5-0.4,0.7-0.7s0.2-0.6,0.2-0.9c0-0.3-0.1-0.6-0.2-0.9s-0.4-0.5-0.7-0.7c-0.3-0.2-0.6-0.2-0.9-0.2s-0.6,0.1-0.9,0.2
		s-0.5,0.4-0.7,0.7s-0.2,0.6-0.2,0.9v0.1c0,0.3,0.1,0.6,0.3,0.9s0.4,0.5,0.7,0.6S126,59.3,126.3,59.3z"/>
	<path d="M130.6,59.5c-0.2,0-0.4,0-0.6-0.1c-0.2-0.1-0.4-0.2-0.6-0.4l0.1-0.1c0.1,0.1,0.2,0.2,0.4,0.3c0.2,0.1,0.4,0.1,0.6,0.1
		c0.2,0,0.3,0,0.5-0.1c0.2-0.1,0.3-0.1,0.4-0.3c0.1-0.1,0.2-0.3,0.2-0.5c0-0.2-0.1-0.4-0.2-0.5c-0.1-0.1-0.2-0.2-0.4-0.3
		c-0.2-0.1-0.3-0.1-0.5-0.2c-0.3-0.1-0.5-0.2-0.7-0.3c-0.2-0.1-0.3-0.4-0.3-0.7c0-0.2,0-0.4,0.1-0.5c0.1-0.1,0.2-0.3,0.4-0.3
		c0.2-0.1,0.3-0.1,0.5-0.1c0.2,0,0.3,0,0.5,0.1c0.2,0.1,0.4,0.2,0.5,0.3l-0.1,0.1c-0.1-0.1-0.3-0.2-0.4-0.3
		c-0.2-0.1-0.3-0.1-0.5-0.1c-0.1,0-0.2,0-0.4,0.1c-0.1,0.1-0.2,0.1-0.3,0.2s-0.1,0.3-0.1,0.4c0,0.2,0,0.3,0.1,0.4s0.2,0.2,0.3,0.3
		c0.1,0.1,0.3,0.1,0.4,0.2c0.2,0.1,0.4,0.1,0.6,0.2s0.3,0.2,0.5,0.3c0.1,0.1,0.2,0.3,0.2,0.5c0,0.2,0,0.4-0.1,0.6
		c-0.1,0.2-0.2,0.3-0.4,0.4C131.1,59.4,130.9,59.5,130.6,59.5z"/>
	<path d="M134.5,59.5c-0.4,0-0.6-0.1-0.9-0.3c-0.2-0.2-0.3-0.5-0.3-0.8v-2.8h0.2v2.8c0,0.3,0.1,0.5,0.3,0.7s0.4,0.3,0.8,0.3
		c0.3,0,0.5-0.1,0.8-0.2c0.2-0.1,0.4-0.3,0.6-0.5c0.2-0.2,0.2-0.5,0.2-0.8v-2.2h0.2v3.9h-0.2l0-1.2l0,0.1c-0.1,0.2-0.2,0.4-0.3,0.6
		s-0.4,0.3-0.6,0.4C135,59.4,134.8,59.5,134.5,59.5z"/>
	<path d="M138.5,55.5l0,1.2l0-0.1c0.1-0.4,0.3-0.6,0.7-0.9c0.3-0.2,0.7-0.3,1-0.3c0.2,0,0.4,0,0.6,0.1s0.3,0.2,0.4,0.4
		c0.1,0.2,0.2,0.3,0.2,0.5l0,0.1c0.1-0.4,0.3-0.6,0.7-0.8c0.3-0.2,0.6-0.3,1-0.3c0.4,0,0.6,0.1,0.9,0.3c0.2,0.2,0.3,0.5,0.3,0.7v2.9
		H144v-2.8c0-0.2-0.1-0.4-0.3-0.6s-0.4-0.3-0.7-0.3c-0.3,0-0.5,0.1-0.8,0.2c-0.2,0.1-0.4,0.3-0.6,0.5c-0.2,0.2-0.2,0.5-0.3,0.7v2.3
		h-0.2v-2.8c0-0.2-0.1-0.4-0.3-0.6s-0.4-0.3-0.7-0.3c-0.3,0-0.6,0.1-0.8,0.2c-0.2,0.1-0.4,0.3-0.6,0.5c-0.2,0.2-0.2,0.5-0.2,0.8v2.2
		h-0.2v-3.9H138.5z"/>
	<path d="M149,59c-0.2,0.1-0.4,0.2-0.6,0.3c-0.2,0.1-0.4,0.1-0.7,0.1c-0.4,0-0.7-0.1-1-0.3c-0.3-0.2-0.5-0.4-0.7-0.7
		c-0.2-0.3-0.3-0.6-0.3-1s0.1-0.7,0.3-1c0.2-0.3,0.4-0.5,0.7-0.7c0.3-0.2,0.6-0.3,1-0.3c0.2,0,0.5,0,0.7,0.1
		c0.2,0.1,0.4,0.2,0.6,0.3l-0.1,0.1c-0.2-0.1-0.3-0.2-0.5-0.3c-0.2-0.1-0.4-0.1-0.6-0.1c-0.3,0-0.6,0.1-0.9,0.2s-0.5,0.4-0.6,0.7
		s-0.2,0.6-0.2,0.9c0,0.3,0.1,0.6,0.2,0.9s0.4,0.5,0.7,0.7s0.6,0.2,0.9,0.2c0.2,0,0.4,0,0.6-0.1s0.4-0.2,0.5-0.3L149,59z"/>
	<path d="M150.3,54.3c0-0.1,0-0.1,0.1-0.2c0,0,0.1-0.1,0.2-0.1c0.1,0,0.1,0,0.2,0.1c0,0,0.1,0.1,0.1,0.2c0,0.1,0,0.1-0.1,0.2
		c0,0-0.1,0.1-0.2,0.1c-0.1,0-0.1,0-0.2-0.1C150.3,54.4,150.3,54.4,150.3,54.3z M150.4,55.5h0.2v3.9h-0.2V55.5z"/>
	<path d="M152.9,53.9h0.2v1.8h1.3v0.2h-1.3v3.6h-0.2v-3.6H152v-0.2h0.9V53.9z"/>
	<path d="M155.2,57.5c0-0.4,0.1-0.7,0.3-1c0.2-0.3,0.4-0.5,0.7-0.7c0.3-0.2,0.6-0.3,1-0.3c0.4,0,0.7,0.1,1,0.3
		c0.3,0.2,0.5,0.4,0.7,0.7c0.2,0.3,0.3,0.6,0.3,1c0,0.4-0.1,0.7-0.3,1c-0.2,0.3-0.4,0.5-0.7,0.7c-0.3,0.2-0.6,0.3-1,0.3
		c-0.4,0-0.7-0.1-1-0.3c-0.3-0.2-0.5-0.4-0.7-0.7C155.3,58.2,155.2,57.8,155.2,57.5z M155.4,57.5c0,0.3,0.1,0.6,0.2,0.9
		s0.4,0.5,0.7,0.7s0.6,0.2,0.9,0.2s0.6-0.1,0.9-0.2s0.5-0.4,0.7-0.7s0.2-0.6,0.2-0.9c0-0.3-0.1-0.6-0.2-0.9s-0.4-0.5-0.7-0.7
		s-0.6-0.2-0.9-0.2c-0.3,0-0.7,0.1-0.9,0.3s-0.5,0.4-0.6,0.7C155.5,56.9,155.4,57.2,155.4,57.5z"/>
</g>
<rect x="508.8" y="10.4" width="67.6" height="67.6"/>
<g>
</g>
<g>
</g>
<g>
</g>
<g>
</g>
<g>
</g>
<g>
</g>
</svg>
