<?xml version="1.0" encoding="utf-8"?>
<!-- Generator: Adobe Illustrator 25.1.0, SVG Export Plug-In . SVG Version: 6.00 Build 0)  -->
<svg version="1.1" id="Capa_1" xmlns="http://www.w3.org/2000/svg" xmlns:xlink="http://www.w3.org/1999/xlink" x="0px" y="0px"
	 viewBox="0 0 595.3 150.9" style="enable-background:new 0 0 595.3 150.9;" xml:space="preserve">
<style type="text/css">
	.st0{fill:#474741;}
	.st1{fill:#FFFFFF;}
	.st2{fill:none;}
</style>
<rect x="17.2" y="17.6" class="st0" width="560.9" height="115.5"/>
<circle class="st1" cx="295.4" cy="64.9" r="26.6"/>
<rect x="37.7" y="34.4" class="st1" width="84.4" height="21.3"/>
<rect x="153.2" y="34.4" class="st1" width="84.4" height="21.3"/>
<g>
	<path d="M66.7,41.1v8.4h-0.2v-4.1H61v4.1h-0.2v-8.4H61v4.1h5.5v-4.1H66.7z"/>
	<path d="M69,45.3c0-0.6,0.1-1.1,0.3-1.7c0.2-0.5,0.5-1,0.9-1.4s0.8-0.7,1.4-0.9c0.5-0.2,1.1-0.3,1.7-0.3c0.6,0,1.1,0.1,1.7,0.3
		c0.5,0.2,1,0.5,1.4,0.9s0.7,0.9,0.9,1.4s0.3,1.1,0.3,1.7c0,0.6-0.1,1.1-0.3,1.7c-0.2,0.5-0.5,1-0.9,1.4c-0.4,0.4-0.9,0.7-1.4,0.9
		c-0.5,0.2-1.1,0.3-1.7,0.3c-0.6,0-1.1-0.1-1.7-0.3c-0.5-0.2-1-0.5-1.4-0.9c-0.4-0.4-0.7-0.8-0.9-1.4C69.1,46.5,69,46,69,45.3z
		 M69.3,45.3c0,0.6,0.1,1.1,0.3,1.6c0.2,0.5,0.5,0.9,0.9,1.3c0.4,0.4,0.8,0.7,1.3,0.9s1,0.3,1.6,0.3c0.6,0,1.1-0.1,1.6-0.3
		c0.5-0.2,0.9-0.5,1.3-0.9s0.7-0.8,0.9-1.3c0.2-0.5,0.3-1,0.3-1.6c0-0.6-0.1-1.1-0.3-1.6c-0.2-0.5-0.5-0.9-0.9-1.3s-0.8-0.7-1.3-0.9
		c-0.5-0.2-1-0.3-1.6-0.3c-0.6,0-1.1,0.1-1.6,0.3s-0.9,0.5-1.3,0.9c-0.4,0.4-0.7,0.8-0.9,1.3C69.4,44.3,69.3,44.8,69.3,45.3z"/>
	<path d="M79.9,49.5V41h0l4,5.7h-0.1l4-5.7h0v8.6h-0.2v-8l0,0.1l-3.7,5.2h0l-3.7-5.2l0-0.1v8H79.9z"/>
	<path d="M90.7,41.1h5v0.2h-4.8v3.8h4.3v0.2h-4.3v3.9h5v0.2h-5.2V41.1z"/>
</g>
<rect x="351.4" y="34.4" class="st1" width="84.4" height="21.3"/>
<g>
	<path d="M384.8,41.1h0.2v8.2h4.8v0.2h-5.1V41.1z"/>
	<path d="M391.9,41.1h0.2v8.4h-0.2V41.1z"/>
	<path d="M395,41.1h4.5v0.2h-4.3v4h3.8v0.2h-3.8v4H395V41.1z"/>
	<path d="M401.9,41.1h5v0.2h-4.8v3.8h4.3v0.2h-4.3v3.9h5v0.2h-5.2V41.1z"/>
</g>
<rect x="465.2" y="34.4" class="st1" width="84.4" height="21.3"/>
<g>
	<path d="M485.2,49.2c-0.2,0.1-0.4,0.2-0.7,0.3c-0.2,0.1-0.5,0.2-0.8,0.2c-0.3,0.1-0.5,0.1-0.8,0.1c-0.6,0-1.2-0.1-1.7-0.3
		c-0.5-0.2-1-0.5-1.4-0.9c-0.4-0.4-0.7-0.8-0.9-1.4c-0.2-0.5-0.3-1.1-0.3-1.6c0-0.6,0.1-1.2,0.3-1.7c0.2-0.5,0.5-1,0.9-1.4
		c0.4-0.4,0.8-0.7,1.4-0.9c0.5-0.2,1.1-0.3,1.7-0.3c0.4,0,0.8,0.1,1.2,0.2c0.4,0.1,0.7,0.3,1.1,0.4l-0.1,0.2c-0.3-0.2-0.6-0.3-1-0.4
		c-0.4-0.1-0.7-0.2-1.1-0.2c-0.6,0-1.1,0.1-1.6,0.3c-0.5,0.2-0.9,0.5-1.3,0.9s-0.7,0.8-0.9,1.3s-0.3,1-0.3,1.6c0,0.5,0.1,1,0.3,1.5
		c0.2,0.5,0.5,0.9,0.8,1.3c0.4,0.4,0.8,0.7,1.3,0.9c0.5,0.2,1,0.3,1.7,0.3c0.4,0,0.8-0.1,1.1-0.2c0.4-0.1,0.7-0.2,1-0.4L485.2,49.2z
		"/>
	<path d="M487,45.5c0-0.6,0.1-1.1,0.3-1.7s0.5-1,0.9-1.4c0.4-0.4,0.8-0.7,1.4-0.9c0.5-0.2,1.1-0.3,1.7-0.3s1.1,0.1,1.7,0.3
		c0.5,0.2,1,0.5,1.4,0.9c0.4,0.4,0.7,0.9,0.9,1.4c0.2,0.5,0.3,1.1,0.3,1.7c0,0.6-0.1,1.1-0.3,1.7c-0.2,0.5-0.5,1-0.9,1.4
		c-0.4,0.4-0.9,0.7-1.4,0.9c-0.5,0.2-1.1,0.3-1.7,0.3s-1.1-0.1-1.7-0.3c-0.5-0.2-1-0.5-1.4-0.9c-0.4-0.4-0.7-0.8-0.9-1.4
		S487,46.1,487,45.5z M487.2,45.5c0,0.6,0.1,1.1,0.3,1.6c0.2,0.5,0.5,0.9,0.9,1.3s0.8,0.7,1.3,0.9c0.5,0.2,1,0.3,1.6,0.3
		c0.6,0,1.1-0.1,1.6-0.3c0.5-0.2,0.9-0.5,1.3-0.9s0.7-0.8,0.9-1.3c0.2-0.5,0.3-1,0.3-1.6c0-0.6-0.1-1.1-0.3-1.6
		c-0.2-0.5-0.5-0.9-0.9-1.3s-0.8-0.7-1.3-0.9c-0.5-0.2-1-0.3-1.6-0.3c-0.6,0-1.1,0.1-1.6,0.3s-0.9,0.5-1.3,0.9
		c-0.4,0.4-0.7,0.8-0.9,1.3C487.3,44.4,487.2,45,487.2,45.5z"/>
	<path d="M504.8,49.8l-6.7-8.1l0.1-0.1l0,8.1h-0.2v-8.6h0l6.8,8.2l-0.1,0v-8.1h0.2L504.8,49.8L504.8,49.8z"/>
	<path d="M506.9,41.3h5.5v0.2h-2.6v8.2h-0.2v-8.2h-2.6V41.3z"/>
	<path d="M513.3,49.7l3.5-8.8h0l3.5,8.8H520l-3.3-8.4l0.2,0l-3.3,8.4H513.3z M514.7,46.3h4.1l0,0.2h-4.2L514.7,46.3z"/>
	<path d="M528.1,49.2c-0.2,0.1-0.4,0.2-0.7,0.3c-0.2,0.1-0.5,0.2-0.8,0.2c-0.3,0.1-0.5,0.1-0.8,0.1c-0.6,0-1.2-0.1-1.7-0.3
		c-0.5-0.2-1-0.5-1.3-0.9c-0.4-0.4-0.7-0.8-0.9-1.4s-0.3-1.1-0.3-1.6c0-0.6,0.1-1.2,0.3-1.7c0.2-0.5,0.5-1,0.9-1.4s0.8-0.7,1.4-0.9
		c0.5-0.2,1.1-0.3,1.7-0.3c0.4,0,0.8,0.1,1.2,0.2s0.7,0.3,1,0.4L528,42c-0.3-0.2-0.6-0.3-1-0.4c-0.4-0.1-0.7-0.2-1.1-0.2
		c-0.6,0-1.1,0.1-1.6,0.3c-0.5,0.2-0.9,0.5-1.3,0.9s-0.7,0.8-0.9,1.3s-0.3,1-0.3,1.6c0,0.5,0.1,1,0.3,1.5c0.2,0.5,0.5,0.9,0.8,1.3
		c0.4,0.4,0.8,0.7,1.3,0.9c0.5,0.2,1,0.3,1.7,0.3c0.4,0,0.8-0.1,1.1-0.2s0.7-0.2,1-0.4L528.1,49.2z"/>
	<path d="M529.7,41.3h5.5v0.2h-2.6v8.2h-0.2v-8.2h-2.6V41.3z"/>
</g>
<g>
	<path d="M176.7,49.5l3.5-8.8h0l3.5,8.8h-0.3l-3.3-8.4l0.2,0l-3.3,8.4H176.7z M178.1,46.2h4.1l0,0.2h-4.2L178.1,46.2z"/>
	<path d="M187.5,41.1c0.8,0,1.4,0.2,1.8,0.5s0.6,0.9,0.6,1.6c0,0.3-0.1,0.6-0.2,0.9s-0.3,0.5-0.5,0.8c-0.2,0.2-0.5,0.3-0.9,0.4v-0.1
		c0.4,0,0.7,0.2,1,0.3c0.3,0.2,0.6,0.4,0.7,0.7c0.2,0.3,0.3,0.6,0.3,1c0,0.4-0.1,0.7-0.2,0.9s-0.3,0.5-0.6,0.7s-0.5,0.3-0.8,0.4
		c-0.3,0.1-0.6,0.1-1,0.1h-2v-8.4H187.5z M187.8,45.2c0.7,0,1.2-0.2,1.5-0.5c0.3-0.4,0.4-0.8,0.4-1.4c0-0.7-0.2-1.2-0.6-1.5
		s-0.9-0.4-1.6-0.4h-1.4v3.9H187.8z M187.9,49.3c0.4,0,0.8-0.1,1.2-0.2s0.6-0.4,0.9-0.6c0.2-0.3,0.3-0.6,0.3-1.1
		c0-0.5-0.1-0.8-0.4-1.1c-0.2-0.3-0.5-0.5-0.9-0.6s-0.7-0.2-1.1-0.2h-1.7v3.9H187.9z"/>
	<path d="M192.2,45.3c0-0.6,0.1-1.1,0.3-1.7c0.2-0.5,0.5-1,0.9-1.4s0.8-0.7,1.4-0.9c0.5-0.2,1.1-0.3,1.7-0.3c0.6,0,1.1,0.1,1.7,0.3
		c0.5,0.2,1,0.5,1.4,0.9s0.7,0.9,0.9,1.4s0.3,1.1,0.3,1.7c0,0.6-0.1,1.1-0.3,1.7c-0.2,0.5-0.5,1-0.9,1.4c-0.4,0.4-0.9,0.7-1.4,0.9
		c-0.5,0.2-1.1,0.3-1.7,0.3c-0.6,0-1.1-0.1-1.7-0.3c-0.5-0.2-1-0.5-1.4-0.9c-0.4-0.4-0.7-0.8-0.9-1.4
		C192.3,46.5,192.2,46,192.2,45.3z M192.4,45.3c0,0.6,0.1,1.1,0.3,1.6c0.2,0.5,0.5,0.9,0.9,1.3c0.4,0.4,0.8,0.7,1.3,0.9
		s1,0.3,1.6,0.3c0.6,0,1.1-0.1,1.6-0.3c0.5-0.2,0.9-0.5,1.3-0.9s0.7-0.8,0.9-1.3c0.2-0.5,0.3-1,0.3-1.6c0-0.6-0.1-1.1-0.3-1.6
		c-0.2-0.5-0.5-0.9-0.9-1.3s-0.8-0.7-1.3-0.9c-0.5-0.2-1-0.3-1.6-0.3c-0.6,0-1.1,0.1-1.6,0.3s-0.9,0.5-1.3,0.9
		c-0.4,0.4-0.7,0.8-0.9,1.3C192.5,44.3,192.4,44.8,192.4,45.3z"/>
	<path d="M203.4,46.8c0,0.6,0.1,1,0.3,1.4c0.2,0.4,0.5,0.7,0.9,0.9c0.4,0.2,0.8,0.3,1.3,0.3s0.9-0.1,1.3-0.3s0.7-0.5,0.9-0.9
		c0.2-0.4,0.3-0.9,0.3-1.4v-5.7h0.2v5.7c0,0.6-0.1,1.1-0.4,1.6c-0.2,0.4-0.6,0.7-1,1s-0.9,0.3-1.4,0.3s-1-0.1-1.4-0.3s-0.7-0.5-1-1
		c-0.2-0.4-0.4-0.9-0.4-1.6v-5.7h0.2V46.8z"/>
	<path d="M210.7,41.1h5.5v0.2h-2.6v8.2h-0.2v-8.2h-2.6V41.1z"/>
</g>
<g>
	<rect x="211.9" y="47.8" class="st2" width="3.6" height="2.7"/>
</g>
<rect x="37.7" y="71.9" class="st1" width="84.4" height="21.3"/>
<rect x="153.2" y="71.9" class="st1" width="84.4" height="21.3"/>
<g>
	<path d="M67.3,85.7c-0.2,0-0.5,0-0.7-0.1s-0.5-0.2-0.7-0.5l0.1-0.1c0.1,0.2,0.3,0.3,0.5,0.4c0.2,0.1,0.5,0.1,0.7,0.1
		c0.2,0,0.4,0,0.6-0.1c0.2-0.1,0.3-0.2,0.5-0.3c0.1-0.2,0.2-0.4,0.2-0.6c0-0.2-0.1-0.4-0.2-0.6s-0.3-0.2-0.5-0.3
		c-0.2-0.1-0.4-0.1-0.6-0.2c-0.3-0.1-0.6-0.2-0.8-0.4c-0.2-0.2-0.3-0.4-0.3-0.8c0-0.3,0.1-0.5,0.2-0.6c0.1-0.2,0.3-0.3,0.5-0.4
		s0.4-0.1,0.6-0.1c0.2,0,0.4,0,0.6,0.1c0.2,0.1,0.4,0.2,0.6,0.4l-0.1,0.2c-0.1-0.2-0.3-0.3-0.5-0.4c-0.2-0.1-0.4-0.1-0.6-0.1
		c-0.1,0-0.3,0-0.5,0.1c-0.2,0.1-0.3,0.2-0.4,0.3c-0.1,0.1-0.2,0.3-0.2,0.5c0,0.2,0,0.3,0.1,0.5c0.1,0.1,0.2,0.2,0.4,0.3
		c0.2,0.1,0.3,0.1,0.5,0.2c0.2,0.1,0.4,0.2,0.6,0.3c0.2,0.1,0.4,0.2,0.5,0.4c0.1,0.2,0.2,0.4,0.2,0.6c0,0.3-0.1,0.5-0.2,0.7
		c-0.1,0.2-0.3,0.4-0.5,0.5C67.9,85.6,67.6,85.7,67.3,85.7z"/>
	<path d="M72.9,81l2,4.4h-0.1l1.9-4.4h0.2l-2.1,4.8l-1.5-3.3L72,85.8L69.8,81h0.2l2,4.4l-0.1,0l1.2-3.1L72.6,81H72.9z"/>
	<path d="M80.3,85.6c-0.4,0-0.8-0.1-1.2-0.3c-0.4-0.2-0.6-0.5-0.9-0.8S78,83.7,78,83.3c0-0.4,0.1-0.8,0.3-1.2
		c0.2-0.4,0.5-0.6,0.9-0.9c0.4-0.2,0.8-0.3,1.2-0.3c0.5,0,0.9,0.1,1.3,0.4s0.6,0.7,0.8,1.1l-4.1,1.7l-0.1-0.2l4-1.6l-0.1,0.1
		c-0.2-0.4-0.4-0.7-0.7-0.9c-0.3-0.3-0.7-0.4-1.1-0.4c-0.4,0-0.7,0.1-1.1,0.3c-0.3,0.2-0.6,0.5-0.8,0.8s-0.3,0.7-0.3,1.1
		c0,0.4,0.1,0.7,0.3,1s0.4,0.6,0.7,0.8c0.3,0.2,0.7,0.3,1.1,0.3c0.3,0,0.5-0.1,0.8-0.2s0.5-0.2,0.7-0.4l0.2,0.2
		c-0.2,0.2-0.5,0.3-0.7,0.4C80.9,85.6,80.6,85.6,80.3,85.6z"/>
	<path d="M85.9,85.6c-0.4,0-0.8-0.1-1.2-0.3c-0.4-0.2-0.6-0.5-0.9-0.8s-0.3-0.8-0.3-1.2c0-0.4,0.1-0.8,0.3-1.2
		c0.2-0.4,0.5-0.6,0.9-0.9c0.4-0.2,0.8-0.3,1.2-0.3c0.5,0,0.9,0.1,1.3,0.4s0.6,0.7,0.8,1.1l-4.1,1.7l-0.1-0.2l4-1.6l-0.1,0.1
		c-0.2-0.4-0.4-0.7-0.7-0.9c-0.3-0.3-0.7-0.4-1.1-0.4c-0.4,0-0.7,0.1-1.1,0.3c-0.3,0.2-0.6,0.5-0.8,0.8s-0.3,0.7-0.3,1.1
		c0,0.4,0.1,0.7,0.3,1s0.4,0.6,0.7,0.8c0.3,0.2,0.7,0.3,1.1,0.3c0.3,0,0.5-0.1,0.8-0.2s0.5-0.2,0.7-0.4l0.2,0.2
		c-0.2,0.2-0.5,0.3-0.7,0.4C86.5,85.6,86.2,85.6,85.9,85.6z"/>
	<path d="M90.1,79h0.2v2.1h1.5v0.2h-1.5v4.2h-0.2v-4.2h-1.1v-0.2h1.1V79z"/>
</g>
<rect x="351.4" y="71.9" class="st1" width="84.4" height="21.3"/>
<g>
	<path d="M385.4,87.2c-0.2,0-0.4,0-0.6-0.1c-0.2,0-0.4-0.1-0.7-0.3c-0.2-0.1-0.5-0.3-0.8-0.6l0.1-0.2c0.4,0.4,0.7,0.6,1.1,0.7
		c0.3,0.1,0.6,0.1,0.8,0.1c0.6,0,1-0.1,1.3-0.3c0.3-0.2,0.5-0.4,0.6-0.7s0.2-0.6,0.2-0.9l0-1.6l0.1,0.1c-0.2,0.5-0.5,0.8-0.9,1.1
		s-0.9,0.4-1.4,0.4c-0.4,0-0.8-0.1-1.2-0.3c-0.4-0.2-0.6-0.5-0.8-0.8s-0.3-0.8-0.3-1.2c0-0.5,0.1-0.9,0.3-1.2
		c0.2-0.4,0.5-0.6,0.9-0.8c0.4-0.2,0.8-0.3,1.2-0.3c0.5,0,0.9,0.1,1.3,0.4c0.4,0.3,0.7,0.6,0.9,1l0,0.1l0.1-1.5h0.2v4.6
		c0,0.4-0.1,0.7-0.2,1c-0.1,0.3-0.4,0.6-0.7,0.8C386.5,87.1,386,87.2,385.4,87.2z M383.3,82.7c0,0.4,0.1,0.8,0.3,1.1
		c0.2,0.3,0.4,0.6,0.8,0.8s0.7,0.3,1.1,0.3c0.4,0,0.8-0.1,1.1-0.3c0.3-0.2,0.6-0.4,0.8-0.7c0.2-0.3,0.3-0.6,0.3-1v-0.5
		c-0.1-0.3-0.2-0.6-0.4-0.9c-0.2-0.3-0.5-0.5-0.8-0.6c-0.3-0.2-0.6-0.2-1-0.2c-0.4,0-0.8,0.1-1.1,0.3c-0.3,0.2-0.6,0.4-0.8,0.8
		C383.4,81.9,383.3,82.3,383.3,82.7z"/>
	<path d="M389.6,82.7c0-0.4,0.1-0.8,0.3-1.2c0.2-0.4,0.5-0.6,0.9-0.9c0.4-0.2,0.8-0.3,1.2-0.3c0.4,0,0.8,0.1,1.2,0.3
		c0.4,0.2,0.6,0.5,0.9,0.9c0.2,0.4,0.3,0.8,0.3,1.2c0,0.4-0.1,0.8-0.3,1.2s-0.5,0.6-0.9,0.8c-0.4,0.2-0.8,0.3-1.2,0.3
		c-0.4,0-0.8-0.1-1.2-0.3c-0.4-0.2-0.6-0.5-0.9-0.8S389.6,83.1,389.6,82.7z M389.8,82.7c0,0.4,0.1,0.8,0.3,1.1
		c0.2,0.3,0.4,0.6,0.8,0.8s0.7,0.3,1.1,0.3s0.7-0.1,1.1-0.3c0.3-0.2,0.6-0.5,0.8-0.8c0.2-0.3,0.3-0.7,0.3-1.1c0-0.4-0.1-0.8-0.3-1.1
		s-0.4-0.6-0.8-0.8c-0.3-0.2-0.7-0.3-1.1-0.3c-0.4,0-0.8,0.1-1.1,0.3c-0.3,0.2-0.6,0.5-0.8,0.8C389.9,82,389.8,82.3,389.8,82.7z"/>
	<path d="M395.6,82.7c0-0.4,0.1-0.8,0.3-1.2c0.2-0.4,0.5-0.6,0.9-0.9c0.4-0.2,0.8-0.3,1.2-0.3c0.4,0,0.8,0.1,1.2,0.3
		c0.4,0.2,0.6,0.5,0.9,0.9c0.2,0.4,0.3,0.8,0.3,1.2c0,0.4-0.1,0.8-0.3,1.2s-0.5,0.6-0.9,0.8c-0.4,0.2-0.8,0.3-1.2,0.3
		c-0.4,0-0.8-0.1-1.2-0.3c-0.4-0.2-0.6-0.5-0.9-0.8S395.6,83.1,395.6,82.7z M395.8,82.7c0,0.4,0.1,0.8,0.3,1.1
		c0.2,0.3,0.4,0.6,0.8,0.8s0.7,0.3,1.1,0.3c0.4,0,0.7-0.1,1.1-0.3s0.6-0.5,0.8-0.8c0.2-0.3,0.3-0.7,0.3-1.1c0-0.4-0.1-0.8-0.3-1.1
		c-0.2-0.3-0.4-0.6-0.8-0.8c-0.3-0.2-0.7-0.3-1.1-0.3c-0.4,0-0.8,0.1-1.1,0.3c-0.3,0.2-0.6,0.5-0.8,0.8
		C395.9,82,395.8,82.3,395.8,82.7z"/>
	<path d="M404,85c-0.4,0-0.8-0.1-1.2-0.3c-0.4-0.2-0.6-0.5-0.8-0.8s-0.3-0.8-0.3-1.2c0-0.5,0.1-0.9,0.3-1.2s0.5-0.6,0.9-0.8
		c0.4-0.2,0.8-0.3,1.2-0.3c0.5,0,0.9,0.1,1.3,0.4c0.4,0.3,0.7,0.6,0.9,1.1l0,0.1v-6h0.2v9h-0.2v-1.6l0,0.2c-0.2,0.4-0.5,0.8-0.9,1
		C404.9,84.9,404.5,85,404,85z M404,84.8c0.4,0,0.8-0.1,1.1-0.3c0.3-0.2,0.6-0.4,0.8-0.7c0.2-0.3,0.3-0.7,0.3-1.1v-0.4
		c-0.1-0.3-0.2-0.6-0.4-0.9c-0.2-0.3-0.5-0.5-0.8-0.7c-0.3-0.2-0.6-0.2-1-0.2c-0.4,0-0.8,0.1-1.1,0.3c-0.3,0.2-0.6,0.4-0.8,0.8
		c-0.2,0.3-0.3,0.7-0.3,1.1c0,0.4,0.1,0.8,0.3,1.1c0.2,0.3,0.4,0.6,0.8,0.8C403.3,84.7,403.6,84.8,404,84.8z"/>
</g>
<rect x="465.2" y="71.9" class="st1" width="84.4" height="21.3"/>
<g>
	<path d="M504.3,85.2l-2.1-4.6h0.3l2.1,4.5L504.3,85.2z M503.4,87.3l2.9-6.7h0.3l-2.9,6.7H503.4z"/>
	<path d="M507.6,82.8c0-0.4,0.1-0.8,0.3-1.2c0.2-0.4,0.5-0.6,0.9-0.9c0.4-0.2,0.8-0.3,1.2-0.3c0.4,0,0.8,0.1,1.2,0.3
		c0.4,0.2,0.6,0.5,0.9,0.9c0.2,0.4,0.3,0.8,0.3,1.2c0,0.4-0.1,0.8-0.3,1.2s-0.5,0.6-0.9,0.8c-0.4,0.2-0.8,0.3-1.2,0.3
		c-0.4,0-0.8-0.1-1.2-0.3c-0.4-0.2-0.6-0.5-0.9-0.8S507.6,83.3,507.6,82.8z M507.9,82.8c0,0.4,0.1,0.8,0.3,1.1
		c0.2,0.3,0.4,0.6,0.8,0.8s0.7,0.3,1.1,0.3c0.4,0,0.7-0.1,1.1-0.3s0.6-0.5,0.8-0.8c0.2-0.3,0.3-0.7,0.3-1.1c0-0.4-0.1-0.8-0.3-1.1
		c-0.2-0.3-0.4-0.6-0.8-0.8c-0.3-0.2-0.7-0.3-1.1-0.3c-0.4,0-0.8,0.1-1.1,0.3c-0.3,0.2-0.6,0.5-0.8,0.8
		C507.9,82.1,507.9,82.5,507.9,82.8z"/>
	<path d="M515.5,85.2c-0.4,0-0.8-0.1-1-0.4c-0.2-0.3-0.4-0.6-0.4-1v-3.3h0.2v3.2c0,0.3,0.1,0.6,0.3,0.8c0.2,0.2,0.5,0.3,0.9,0.4
		c0.3,0,0.6-0.1,0.9-0.2s0.5-0.4,0.7-0.6c0.2-0.3,0.3-0.6,0.3-0.9v-2.6h0.2v4.5h-0.2l0-1.4l0,0.1c-0.1,0.3-0.2,0.5-0.4,0.7
		s-0.4,0.4-0.7,0.5C516.1,85.2,515.8,85.2,515.5,85.2z"/>
</g>
<g>
	<path d="M191.2,80.4l0,1.4l0-0.1c0.1-0.4,0.4-0.8,0.8-1c0.4-0.2,0.8-0.4,1.2-0.4c0.2,0,0.5,0.1,0.7,0.2c0.2,0.1,0.4,0.3,0.5,0.4
		c0.1,0.2,0.2,0.4,0.2,0.6l0,0.1c0.2-0.4,0.4-0.7,0.8-0.9c0.4-0.2,0.8-0.3,1.2-0.3c0.4,0,0.8,0.1,1,0.4c0.3,0.2,0.4,0.5,0.4,0.9V85
		h-0.2v-3.3c0-0.3-0.1-0.5-0.3-0.7c-0.2-0.2-0.5-0.3-0.9-0.4c-0.3,0-0.6,0.1-0.9,0.2s-0.5,0.4-0.7,0.6c-0.2,0.3-0.3,0.5-0.3,0.9V85
		h-0.2v-3.3c0-0.3-0.1-0.5-0.3-0.7c-0.2-0.2-0.5-0.3-0.9-0.4c-0.3,0-0.7,0.1-0.9,0.2c-0.3,0.2-0.5,0.4-0.7,0.6
		c-0.2,0.3-0.3,0.6-0.3,0.9V85h-0.2v-4.5H191.2z"/>
	<path d="M202.1,85c-0.4,0-0.8-0.1-1.2-0.3c-0.4-0.2-0.6-0.5-0.9-0.8s-0.3-0.8-0.3-1.2c0-0.4,0.1-0.8,0.3-1.2
		c0.2-0.4,0.5-0.6,0.9-0.9c0.4-0.2,0.8-0.3,1.2-0.3c0.5,0,0.9,0.1,1.3,0.4s0.6,0.7,0.8,1.1l-4.1,1.7l-0.1-0.2l4-1.6l-0.1,0.1
		c-0.2-0.4-0.4-0.7-0.7-0.9c-0.3-0.3-0.7-0.4-1.1-0.4c-0.4,0-0.7,0.1-1.1,0.3c-0.3,0.2-0.6,0.5-0.8,0.8s-0.3,0.7-0.3,1.1
		c0,0.4,0.1,0.7,0.3,1s0.4,0.6,0.7,0.8c0.3,0.2,0.7,0.3,1.1,0.3c0.3,0,0.5-0.1,0.8-0.2s0.5-0.2,0.7-0.4l0.2,0.2
		c-0.2,0.2-0.5,0.3-0.7,0.4C202.7,85,202.4,85,202.1,85z"/>
</g>
<g>
	<rect x="211.9" y="85.2" class="st2" width="3.6" height="2.7"/>
</g>
<g>
</g>
<g>
</g>
<g>
</g>
<g>
</g>
<g>
</g>
<g>
</g>
</svg>
