<?xml version="1.0" encoding="utf-8"?>
<!-- Generator: Adobe Illustrator 25.1.0, SVG Export Plug-In . SVG Version: 6.00 Build 0)  -->
<svg version="1.1" id="Capa_1" xmlns="http://www.w3.org/2000/svg" xmlns:xlink="http://www.w3.org/1999/xlink" x="0px" y="0px"
	 viewBox="0 0 638.6 415.8" style="enable-background:new 0 0 638.6 415.8;" xml:space="preserve">
<style type="text/css">
	.st0{fill:#E73433;}
	.st1{fill:#FFD817;}
	.st2{fill:#70B62C;}
	.st3{fill:#6EC5CF;}
	.st4{fill:#4F4C9A;}
	.st5{fill:#804B98;}
	.st6{fill:#E7247F;}
	.st7{fill:#474741;}
	.st8{fill:#FFCC19;}
</style>
<rect x="17.2" y="17.7" class="st0" width="115.5" height="115.5"/>
<path class="st1" d="M252.7,133.2h-78.3c-10.3,0-18.6-8.3-18.6-18.6V36.3c0-10.3,8.3-18.6,18.6-18.6h78.3c10.3,0,18.6,8.3,18.6,18.6
	v78.3C271.4,124.9,263,133.2,252.7,133.2z"/>
<rect x="294.5" y="17.7" class="st2" width="115.5" height="115.5"/>
<path class="st3" d="M530.1,133.2h-78.3c-10.3,0-18.6-8.3-18.6-18.6V36.3c0-10.3,8.3-18.6,18.6-18.6h78.3c10.3,0,18.6,8.3,18.6,18.6
	v78.3C548.7,124.9,540.3,133.2,530.1,133.2z"/>
<path class="st4" d="M114.5,265.6H35.4c-10,0-18.2-8.1-18.2-18.2v-79.1c0-10,8.1-18.2,18.2-18.2h79.1c10,0,18.2,8.1,18.2,18.2v79.1
	C132.7,257.5,124.5,265.6,114.5,265.6z"/>
<rect x="155.8" y="150.1" class="st5" width="115.5" height="115.5"/>
<path class="st6" d="M390.1,265.6h-75.6c-11,0-20-8.9-20-20v-75.6c0-11,8.9-20,20-20h75.6c11,0,20,8.9,20,20v75.6
	C410,256.7,401.1,265.6,390.1,265.6z"/>
<rect x="433.2" y="150.1" class="st7" width="115.5" height="115.5"/>
<rect x="24.3" y="25.6" class="st8" width="32.9" height="32.9"/>
<path class="st8" d="M330.3,58.4h-14.7c-5,0-9.1-4.1-9.1-9.1V34.7c0-5,4.1-9.1,9.1-9.1h14.7c5,0,9.1,4.1,9.1,9.1v14.7
	C339.4,54.4,335.4,58.4,330.3,58.4z"/>
<path class="st8" d="M498.3,224.3h-14.7c-5,0-9.1-4.1-9.1-9.1v-14.7c0-5,4.1-9.1,9.1-9.1h14.7c5,0,9.1,4.1,9.1,9.1v14.7
	C507.4,220.3,503.3,224.3,498.3,224.3z"/>
<g>
</g>
<g>
</g>
<g>
</g>
<g>
</g>
<g>
</g>
<g>
</g>
</svg>
